Coordinates
version=1
nRows=19
nColumns=24
inDegrees=yes

Units are S.I. units (second, meters, Newtons, ...)
Angles are in degrees.

endheader
time	pelvis_tilt	pelvis_list	pelvis_rotation	pelvis_tx	pelvis_ty	pelvis_tz	hip_flexion_r	hip_adduction_r	hip_rotation_r	knee_angle_r	ankle_angle_r	subtalar_angle_r	mtp_angle_r	hip_flexion_l	hip_adduction_l	hip_rotation_l	knee_angle_l	ankle_angle_l	subtalar_angle_l	mtp_angle_l	lumbar_extension	lumbar_bending	lumbar_rotation
      0.68716667	     -6.92257395	      0.80849512	      1.90441419	     -0.44796382	      1.04391158	      0.31769718	     23.08196543	      1.16511160	     -1.40745571	    -29.55282682	     15.75556402	     -4.65045730	      3.66702952	     19.19007168	     -4.30058258	     -6.10241275	    -71.73362882	      9.87759718	      5.81154093	      4.25817492	     -6.13598349	      1.57745294	      0.62079799
      0.69133333	     -6.95586055	      0.94324432	      1.91625486	     -0.44274054	      1.04544019	      0.31769245	     22.54563553	      1.02518239	     -1.39378034	    -29.03714456	     15.77706915	     -4.59625549	      3.66762686	     19.81722357	     -4.11656945	     -6.14736090	    -71.66020329	     10.08159653	      5.96214366	      4.26672096	     -6.09952620	      1.42052863	      0.66151886
      0.69550000	     -7.00054699	      1.08736512	      1.92119357	     -0.43755117	      1.04690635	      0.31768336	     22.02860165	      0.87654967	     -1.37224436	    -28.52927607	     15.78641032	     -4.54156878	      3.66851014	     20.44966312	     -3.92122453	     -6.19995013	    -71.53061540	     10.29625011	      6.16937463	      4.27879077	     -6.06847308	      1.25346098	      0.71559977
      0.69966667	     -7.04101864	      1.22792286	      1.91380513	     -0.43238654	      1.04835437	      0.31768800	     21.50708917	      0.73851049	     -1.32806214	    -28.01358624	     15.77849822	     -4.49474629	      3.67028818	     21.06835357	     -3.73330530	     -6.26017109	    -71.34443057	     10.52204268	      6.44415648	      4.29870035	     -6.06700436	      1.09083605	      0.81092209
      0.70383333	     -7.07947609	      1.37716557	      1.89963142	     -0.42720039	      1.04978683	      0.31767670	     20.98030650	      0.58944408	     -1.28677898	    -27.48977527	     15.77116593	     -4.44824306	      3.67234944	     21.66693726	     -3.53579463	     -6.33445320	    -71.08769971	     10.71117753	      6.65499339	      4.31929899	     -6.04648628	      0.91677830	      0.88943190
      0.70800000	     -7.10634778	      1.51365832	      1.87916721	     -0.42202531	      1.05120469	      0.31766406	     20.43833743	      0.45558875	     -1.24474687	    -26.95374438	     15.74968217	     -4.40982371	      3.67499023	     22.24441061	     -3.35699458	     -6.41527219	    -70.77865624	     10.90279411	      6.89175444	      4.34523875	     -6.04018152	      0.75537110	      0.98143806
      0.71216667	     -7.12383646	      1.66719436	      1.84745953	     -0.41685042	      1.05261169	      0.31765345	     19.88925981	      0.30542712	     -1.19318876	    -26.41973467	     15.73116909	     -4.36796123	      3.67839611	     22.79350241	     -3.16230963	     -6.51093651	    -70.40357807	     11.07325723	      7.09698400	      4.37385830	     -6.04626362	      0.57675332	      1.07085624
      0.71633333	     -7.14649881	      1.81858911	      1.81187980	     -0.41167957	      1.05396954	      0.31763128	     19.34716869	      0.15599438	     -1.14364428	    -25.88529606	     15.70410468	     -4.32491849	      3.68173299	     23.33664370	     -2.97085288	     -6.61022253	    -69.97247069	     11.23671544	      7.29619244	      4.40363390	     -6.04698971	      0.40002053	      1.16043354
      0.72050000	     -7.17419238	      1.96931239	      1.76907145	     -0.40651927	      1.05525360	      0.31761259	     18.81649564	      0.00806699	     -1.08953448	    -25.35781692	     15.67928167	     -4.28381008	      3.68577599	     23.87509594	     -2.78667185	     -6.72133098	    -69.49684896	     11.39195404	      7.47951485	      4.43511377	     -6.04136711	      0.22343214	      1.25628031
      0.72466667	     -7.16166584	      2.10759865	      1.71244582	     -0.40135785	      1.05658075	      0.31761480	     18.23528330	     -0.11928333	     -1.01267190	    -24.80890771	     15.66350583	     -4.27148539	      3.69556725	     24.35368166	     -2.62542566	     -6.84187573	    -68.96371601	     11.54264050	      7.66002792	      4.49341037	     -6.08702434	      0.04963947	      1.42662049
      0.72883333	     -7.19037936	      2.27411025	      1.66184891	     -0.39620522	      1.05778376	      0.31757338	     17.71547422	     -0.28919967	     -0.96900309	    -24.29465120	     15.62077424	     -4.21213387	      3.70058721	     24.86368290	     -2.42349278	     -6.95752084	    -68.37349091	     11.66492201	      7.78816601	      4.52812505	     -6.08243961	     -0.13973012	      1.49518039
      0.73300000	     -7.17454119	      2.42136923	      1.59714625	     -0.39105886	      1.05901841	      0.31755876	     17.14113321	     -0.42975444	     -0.89721441	    -23.75983189	     15.60561169	     -4.18663674	      3.71227627	     25.31190903	     -2.25583551	     -7.08598116	    -67.73724684	     11.78766051	      7.91615921	      4.59123769	     -6.13095529	     -0.32329447	      1.65761146
      0.73716667	     -7.20673099	      2.57813115	      1.53799678	     -0.38591737	      1.06009459	      0.31751083	     16.63314216	     -0.59050277	     -0.85318481	    -23.25420826	     15.56284841	     -4.12683037	      3.71795194	     25.80304273	     -2.07079548	     -7.20399987	    -67.05776662	     11.89382705	      8.00881990	      4.62580599	     -6.12577558	     -0.49915756	      1.73035511
      0.74133333	     -7.22007224	      2.72322746	      1.47443231	     -0.38076374	      1.06115142	      0.31747711	     16.10171797	     -0.73700999	     -0.81399062	    -22.73873145	     15.53956554	     -4.07092898	      3.72227552	     26.26056610	     -1.90985477	     -7.33441502	    -66.33601197	     11.98939677	      8.07528054	      4.65159141	     -6.12260833	     -0.68545897	      1.80498618
      0.74550000	     -7.19200355	      2.88218270	      1.39254593	     -0.37564895	      1.06223562	      0.31745536	     15.53516251	     -0.89178611	     -0.72882958	    -22.23690522	     15.53850199	     -4.05277098	      3.73579719	     26.65351972	     -1.73531098	     -7.46699931	    -65.55255544	     12.06047608	      8.11231942	      4.71378877	     -6.20670360	     -0.87126517	      2.02342587
      0.74966667	     -7.21309119	      3.03358860	      1.31783650	     -0.37052675	      1.06314248	      0.31741982	     15.03090982	     -1.04527688	     -0.67341175	    -21.75312062	     15.52557518	     -4.00324818	      3.75020885	     27.09323599	     -1.56966611	     -7.59229359	    -64.73966551	     12.12334542	      8.13050473	      4.77664767	     -6.21668282	     -1.05963348	      2.16837545
      0.75383333	     -7.23578950	      3.17888950	      1.24743159	     -0.36541182	      1.06398608	      0.31735937	     14.53313793	     -1.19655332	     -0.63257454	    -21.27695557	     15.49299508	     -3.94657649	      3.75658808	     27.52355968	     -1.40881545	     -7.70774018	    -63.88576215	     12.17793432	      8.14248287	      4.80829566	     -6.22286171	     -1.22259596	      2.24839703
      0.75800000	     -7.22320270	      3.32332924	      1.16582425	     -0.36030269	      1.06482917	      0.31733140	     14.00002658	     -1.34256631	     -0.57674917	    -20.80337313	     15.51264345	     -3.90659934	      3.77024997	     27.89910940	     -1.25730336	     -7.82991304	    -62.98668759	     12.20321197	      8.09135338	      4.86255196	     -6.27285781	     -1.41108101	      2.42665815
      0.76216667	     -7.25856271	      3.45960555	      1.09472327	     -0.35519541	      1.06550053	      0.31726597	     13.53033257	     -1.48600143	     -0.53764700	    -20.35603621	     15.49801007	     -3.85231329	      3.77701449	     28.31898947	     -1.10881175	     -7.93361690	    -62.05513355	     12.22661967	      8.06275328	      4.89118626	     -6.26645693	     -1.56830032	      2.51868919
